<svg width="800" height="600" xmlns="http://www.w3.org/2000/svg">

 <g>
  <title>Layer 1</title>
  <path stroke="#000" id="svg_13" d="m260.53369,199.05984c-1.46153,0 -2.21275,-1.41483 -2.21275,-3.11146c0,-1.4145 0.37555,-2.78782 1.46153,-2.78782c0.75122,0 1.88209,1.37332 2.25765,2.78782c0.75122,2.05949 0,3.11146 -1.50642,3.11146zm249.83252,80.72836c3.34373,0 4.09484,0.36285 2.21275,2.78749c-1.08597,1.69663 -3.34362,3.11113 -4.42959,3.11113c-1.13076,0 -2.25765,-1.4145 -2.25765,-3.11113c0,-1.73825 1.50654,-2.78749 4.47449,-2.78749zm-233.44509,-98.74897c-3.34362,-0.6865 -3.71929,-4.16278 0,-5.21235c1.88198,-0.3232 2.96806,0.68639 2.96806,2.78782c0,1.73803 -1.08609,2.74806 -2.96806,2.42453zm-41.67895,109.81866c4.47449,-1.01014 4.47449,-1.73617 2.96806,-4.12127c-1.12689,-1.73617 -1.50245,-3.83739 -0.75122,-4.52399c0.37555,-1.05143 2.25765,0 3.34362,2.0597c1.50642,2.78782 2.6332,3.15286 5.60127,1.4145c1.84129,-1.04946 3.34362,-1.73781 3.34362,-0.68639c0,0.68639 1.13087,0 2.5924,-1.4145c2.25776,-2.0597 2.63332,-6.58556 0.37567,-9.01031c-1.83719,-2.0597 -11.16173,-1.3731 -13.75412,1.04946c-1.50245,1.73836 -2.63332,1.37529 -4.09484,-1.73584c-2.25765,-5.17303 -2.25765,-5.89928 2.96795,-6.22249c4.47449,0 4.47449,0 0.75122,-2.10121c-1.878,-1.01014 -3.71917,-3.11113 -3.71917,-4.48445c0,-3.47607 5.18479,-5.53577 7.44244,-3.11102c0.75122,1.00992 2.21286,2.0597 3.71929,2.0597c2.96806,0 17.13855,-11.75672 17.13855,-14.18147c0,-1.05132 1.46562,-1.7377 2.96806,-1.05132c1.84117,0.36493 5.18491,-0.68639 8.57342,-2.42475c4.80514,-2.7876 4.80514,-3.11113 2.21275,-7.63512c-1.83719,-3.11113 -4.09484,-4.16278 -9.32055,-4.16278c-5.93601,0 -7.44244,0.68671 -9.27963,4.8495c-0.75532,2.78749 -3.01285,4.84731 -4.47449,4.84731c-2.5924,0 -3.34362,-3.10927 -0.75122,-4.84731c1.12678,-0.68671 1.878,-3.11113 1.878,-5.53588c0,-3.79796 -0.75122,-4.48445 -5.60127,-3.47421c-4.85004,0.68639 -4.85004,0.36285 -3.71929,-4.84971c0.75122,-3.11102 1.83719,-5.89862 2.59251,-6.22216c0.75122,-0.36285 1.50233,-3.47421 1.50233,-6.58534c0,-6.22281 2.21684,-7.27227 6.31577,-2.78782c1.87789,2.42464 3.00887,2.78782 3.71917,0.68639c0.75122,-1.3731 3.38443,-1.69663 7.48336,-1.01025c5.56046,1.37332 5.93601,1.01025 5.18479,-3.11113c-0.37555,-2.42442 -0.7552,-5.21224 -1.13076,-5.89862c0,-1.04979 -1.83719,-2.42475 -4.05404,-3.47453c-4.47449,-1.7377 -5.60127,-5.89862 -1.50642,-5.89862c1.13087,0 2.21673,-0.68671 2.21673,-2.0619c0,-1.04979 2.25776,-1.73617 5.22571,-1.41472c4.09893,0.36493 6.31168,-1.0097 11.91295,-8.28164c4.09893,-5.21257 7.06688,-8.00017 7.44255,-6.58567c0.37555,1.73617 2.25765,2.74609 4.09882,2.74609c2.96806,0 3.34373,-1.00992 2.25776,-5.53391c-0.37965,-3.11135 -2.25776,-6.90887 -3.38852,-8.64723c-3.34373,-3.83892 -3.34373,-8.32337 0,-6.9506c2.6332,1.37529 10.82686,-2.42256 10.82686,-4.8472c0,-1.05143 1.09006,-1.73803 2.5924,-1.73803c1.50654,0 2.21684,2.1011 2.21684,4.84939c0,3.47421 0.75122,4.84752 2.63332,3.83728c1.46153,-0.72614 2.59251,-2.78782 2.59251,-4.16081c0,-4.163 11.91284,-11.43505 14.88079,-9.37349c1.13098,0.68693 2.25765,0 2.63752,-2.42442c1.08586,-4.84939 7.8139,-8.64723 10.78185,-6.22249c1.50654,1.00992 2.96818,0.68671 3.34782,-0.36285c0.75111,-1.37518 3.71917,-2.42475 7.06279,-2.7485c3.34362,-0.36285 7.81811,-1.73803 9.7002,-3.15253c7.06279,-4.48445 14.12979,-4.16092 17.09774,0.6888c1.88209,3.47399 2.6332,3.47399 2.6332,1.04924c0,-3.11135 1.46573,-3.47421 10.41062,-2.42442c14.1706,1.37518 16.38744,1.37518 21.61315,-0.36318c3.34362,-1.01014 4.47437,-0.6866 4.47437,2.10089c0,1.73836 1.08609,3.11146 2.59251,3.11146c1.12678,0 2.21275,-1.01025 2.21275,-2.06168c0,-2.78749 5.98103,-4.16081 11.20662,-2.78749c4.05404,1.37518 4.42959,1.7377 3.34362,11.07154c-0.37555,5.57542 0,9.37327 0.71042,9.37327c0.75111,0 1.50642,-2.42475 1.50642,-5.89895c0,-5.85941 4.09484,-8.28219 5.60127,-3.47431c0.37567,1.73628 1.46153,1.04957 2.21275,-1.69652c1.88221,-7.27413 5.98103,-3.4764 4.85004,4.48445c-1.12666,6.58534 -1.12666,6.58534 2.21695,4.16059c1.88198,-1.04957 3.34351,-3.79752 3.34351,-5.53391c0,-1.73814 1.13098,-3.79971 2.63343,-4.52596c2.96784,-1.37277 6.31566,3.83761 5.2256,7.63699c-0.37555,1.7365 -0.37555,3.11135 0.7103,3.11135c0.75532,0 1.50654,-1.00992 1.50654,-1.73803c0,-1.01014 1.84117,-1.37332 4.09882,-0.68639c4.84606,1.04957 5.55637,3.83706 1.46164,5.53369c-1.08597,0.72811 -2.21684,2.42475 -2.21684,3.83947c0,2.42475 0.7552,2.42475 4.85004,0c6.68724,-4.16081 9.65519,-3.83947 10.78617,0.68639c0.75111,2.42475 2.21673,3.47618 3.71917,2.42475c1.50642,-0.36307 4.85004,1.05143 7.44255,3.47421c2.25765,2.06157 5.60127,3.79785 7.10769,3.79785c2.21684,0 2.21684,1.73825 1.46153,6.58742c-0.75111,5.21257 -0.75111,5.89895 1.50654,3.79807c2.96795,-3.435 4.09484,-3.11168 5.18491,1.73584c0.37555,2.42475 3.00876,4.16278 5.97682,5.21235c3.34362,0.6888 5.18491,2.42464 5.18491,4.48631c0,2.1011 1.12666,4.52399 2.25765,5.89917c2.96806,2.42442 2.21275,9.69647 -1.13098,12.12111c-1.12666,0.72625 -2.59228,0.36318 -2.96795,-0.68639c-0.75111,-1.05165 -3.34362,-1.05165 -8.19378,0c-7.81811,2.42256 -9.27963,3.11113 -7.44244,6.26181c1.13087,2.0597 14.13377,1.37332 21.23748,-1.05143c2.21684,-1.04968 2.96806,0 2.96806,4.8495c0,3.47399 -0.75122,6.22249 -1.878,6.22249c-0.75532,0 -1.46562,1.04946 -1.46562,2.78749c0,4.16256 1.84129,3.79752 6.69133,-1.04979c2.5883,-2.78749 4.09473,-3.47607 5.93601,-1.7377c1.878,1.7377 2.25765,1.7377 2.25765,-1.04979c0,-1.69871 -0.75532,-3.11113 -1.88198,-3.11113c-0.71042,0 -1.46573,-1.37518 -1.46573,-2.7485c0,-1.73781 1.09006,-3.11113 2.5924,-3.11113c1.13087,0 2.63332,0.68639 2.63332,1.69663c0,1.05187 1.46562,2.42464 3.34771,2.78782c2.58842,1.05165 3.34362,2.42475 2.96795,6.58556c-0.7552,7.9603 0.75134,10.38527 6.31168,9.01217c2.63332,-0.6888 4.09473,0 2.96806,1.3731c-0.33475,0.68639 0,2.42475 0.75122,3.15045c3.01285,2.06179 1.88198,6.90942 -1.46164,6.90942c-4.09882,0 -5.22571,1.7377 -3.00876,4.84917c1.50233,1.73803 2.6332,2.0597 4.09473,0.6866c3.38852,-3.47421 4.09893,-0.6866 4.47449,13.17309c0,6.94819 0.75122,12.48429 1.50245,12.48429c1.84117,0 1.13087,7.63699 -1.50245,10.74812c-1.46562,1.73617 -1.46562,3.4327 -0.37555,4.8472c2.6332,3.11146 0,12.12177 -3.34782,12.12177c-2.96784,0 -8.56922,6.58534 -8.56922,9.69669c0,3.79993 -4.80514,0 -5.93601,-4.16092c-1.12678,-3.79774 -1.12678,-3.79774 -1.88209,-1.05143c-0.7103,3.15264 3.34771,12.84933 6.73225,15.59729c2.21673,2.10143 -1.88209,5.57542 -4.85016,4.16092c-1.50654,-0.68639 -2.21684,-2.74609 -2.21684,-4.84731c0,-5.89862 -9.32055,-20.76856 -16.38744,-26.34376c-3.75998,-2.7485 -7.10371,-5.85963 -7.10371,-6.90909c0,-2.10121 -11.91693,-8.64723 -18.60417,-10.74834c-3.72338,-1.05143 -4.85016,-0.6865 -4.85016,2.1011c0,2.0597 -0.7103,2.74609 -2.21684,2.0597c-3.34362,-1.37332 -4.85004,1.73836 -1.88198,4.8495c4.09882,3.79774 3.38852,8.32337 -1.08597,6.58534c-3.00887,-1.04957 -3.38454,-0.68671 -2.25765,5.21246c0.37555,3.43467 1.13087,7.9603 1.13087,10.02001c0,2.10121 0.75111,3.47453 1.50233,3.47453c1.09018,0 1.46562,-0.68671 0.71042,-1.73617c-0.37555,-1.05165 0.37976,-2.06168 1.88198,-2.06168c1.13098,0 2.21684,1.37496 2.21684,2.74806c0,1.41472 -1.4655,2.78749 -4.09882,2.42497c-2.21275,0 -4.09484,-1.01025 -4.09484,-1.69685c0,-3.15286 -10.03495,-24.60781 -13.0029,-27.75848c-3.34373,-3.435 -1.12689,-4.48445 -27.54928,11.7978c-4.09473,2.42475 -8.56922,7.63699 -10.82686,11.43505c-1.84129,3.79752 -4.80924,7.63699 -6.31168,8.32337c-1.50642,0.68671 -7.06688,6.22249 -11.91704,12.12144c-20.86193,25.97872 -17.47341,29.09007 -16.01177,82.14308c6.31566,40.20137 6.31566,40.20137 6.31566,40.20137c-14.88499,0 -14.88499,0 -14.88499,0c-12.2885,0 -12.2885,0 -12.2885,0c1.12678,-37.09232 1.12678,-37.09232 1.12678,-37.09232c0.75111,-3.10905 1.13087,-9.37294 1.50654,-12.84747c0.37555,-2.06157 -10.45142,-11.07187 -10.07575,-13.13136c0,-1.73803 11.20253,3.11146 11.20253,1.3731c1.84117,-25.29234 0,-45.41394 -4.85016,-56.12263c-1.12678,-6.58567 -10.45131,-27.7564 -11.91284,-27.7564c-0.37567,0 -3.00887,-2.06157 -5.60127,-4.48631c-4.4746,-4.52377 -6.31168,-4.84752 -31.27254,-6.22249c-26.79794,-1.41264 -26.79794,-1.41264 -26.79794,-1.41264c-6.35249,4.84752 -6.35249,4.84752 -6.35249,4.84752c-3.71917,3.15253 -7.44244,5.21235 -8.52852,5.21235c-2.25765,0 -11.58218,7.27381 -15.63621,11.4344c-0.37555,0 -0.75111,-0.36252 -0.75111,-0.68639c-0.37567,0 -0.37567,0 -0.37567,-0.36307c-0.37555,-1.00992 -0.7552,-2.06157 -1.50642,-3.11113c2.25765,-1.73803 4.09882,-2.78946 4.85004,-2.42442c1.12678,0.68639 2.21684,0 2.21684,-1.73836c0,-1.73617 -2.21684,-2.42464 -8.15286,-1.73617c-7.1078,1.04979 -8.94898,1.41264 -10.07575,5.53402c-1.84129,2.1011 -2.21684,5.21246 -1.12678,7.63721c-0.37976,3.11113 -0.37976,5.21224 0,5.21224c0.37555,0 0.75111,-0.68639 1.878,-1.4145c0,0.36318 0.37555,0.72811 0.7552,1.05143c-3.72327,1.04957 -5.60536,4.16092 -5.22571,7.27205c-1.88198,1.4145 -3.72327,2.1011 -5.9808,3.15067c0,0 0,-0.36285 -0.33486,-0.36285c1.46562,-3.11113 2.21684,-6.58567 2.5924,-11.79791c0.75532,-5.85963 0.37555,-9.69669 -0.75111,-9.69669c-0.75122,0 -1.50642,1.4145 -1.50642,3.47388c0.37544,1.73836 -0.33486,3.47453 -1.83731,3.79807c-1.13087,0.36285 -1.88198,-0.32353 -1.88198,-2.0597c0,-4.16278 -1.46164,-4.16278 -4.80935,-0.36493c-1.50233,1.4145 -4.4704,3.11135 -7.06279,3.83947c-3.38852,1.00992 -4.47449,0.3232 -5.98091,-3.47453c-1.12678,-3.11113 -1.878,-6.58742 -1.12678,-7.96052c0.37555,-1.73803 0.37555,-3.15067 -1.08597,-3.15067c-4.09893,0 -1.13087,-5.5361 3.71917,-6.58753zm32.02365,-79.67693c-2.25765,-0.36285 -4.09893,-1.3731 -4.85004,-2.7876c-0.37567,-2.06157 -0.75122,-2.06157 -0.75122,0c0,1.4145 -1.50642,2.42475 -2.96806,2.7876c-2.6332,0 -2.6332,0.36307 0.37567,1.73836c1.83708,0.68639 3.71917,1.73584 4.09473,1.73584c0.33475,0 2.21684,-1.04946 4.09893,-1.73584c3.34362,-1.73836 3.34362,-1.73836 0,-1.73836zm295.23065,55.7991c0.71042,0.68671 1.46164,-0.36493 1.46164,-2.1011c0,-1.37496 -0.75122,-2.74828 -1.46164,-2.74828c-1.13076,0 -1.88198,0.6866 -1.88198,1.69663c0,1.05165 0.75122,2.46615 1.88198,3.15275zm-2.6332,3.11135c-0.37555,-1.05165 -2.21684,-2.42464 -3.72327,-2.42464c-1.08597,0 -1.83719,1.37299 -1.08597,2.42464c0.33475,1.04957 1.84117,1.73628 3.34362,1.73628c1.46562,0 1.84117,-0.68671 1.46562,-1.73628zm-3.34362,15.59542c1.12678,0 2.6332,-0.36285 2.6332,-0.68639c0,-0.72811 -1.50642,-1.4145 -2.6332,-2.10121c-1.46562,-0.6866 -2.59251,-0.32353 -2.59251,0.68671c0,1.05143 1.12689,2.10089 2.59251,2.10089zm2.96806,-32.9291c1.50233,-0.68693 2.25753,-1.73825 1.878,-2.7485c-1.12689,-2.46396 -7.43857,-2.46396 -7.43857,0c0,2.7485 2.21286,3.79807 5.56057,2.7485zm-20.44545,-25.98113c-1.88209,1.05165 -3.00887,3.11135 -2.63343,4.16278c1.88209,2.74642 4.09905,2.0597 5.97693,-2.42475c1.84129,-4.16278 1.09006,-4.84917 -3.34351,-1.73803zm-7.1078,53.37446c9.70009,9.33351 10.07575,9.69669 10.07575,6.58556c0,-1.73617 -0.75122,-3.15067 -1.88209,-3.15067c-1.08586,0 -2.96795,-1.73836 -4.09473,-3.79774c-1.08609,-2.0619 -3.34362,-4.16311 -5.18491,-4.16311c-3.38443,0 -3.38443,0.36504 1.08597,4.52596zm-7.81413,-16.32376c2.25367,0 3.34373,-0.68639 1.87811,-1.01003c-1.12678,-0.6866 -2.96806,-0.6866 -4.09484,0c-1.13098,0.32364 0,1.01003 2.21673,1.01003zm-10.78606,-47.11057c1.12678,1.04979 4.4704,2.42289 7.43835,3.11146c5.22583,1.04946 5.60138,1.04946 2.63332,-1.73803c-3.38443,-3.435 -12.66406,-4.48445 -10.07166,-1.37343zm-22.70321,-57.4954c-1.12678,1.00992 -1.50233,3.11113 -1.12678,4.48412c0.75122,2.78782 2.96806,0.36318 2.96806,-3.79774c0,-2.10121 -0.37567,-2.42475 -1.84129,-0.68639zm11.16173,74.82941c2.96806,1.73595 4.09893,1.73595 5.60547,-0.68858c2.96795,-3.79796 1.08586,-5.53391 -4.4746,-3.11102c-4.47449,1.6985 -4.47449,1.6985 -1.13087,3.7996zm-7.43835,-17.33401c5.60127,-3.79741 5.60127,-3.79741 1.12678,-3.79741c-3.00887,0 -5.22571,1.37277 -6.35249,3.79741c-0.71042,2.42289 -1.46562,3.79807 -1.09006,3.79807c0,0 2.96806,-2.06179 6.31577,-3.79807zm-8.19378,56.16228c2.5883,3.79807 7.06291,3.79807 5.60127,-0.36307c-0.37555,-1.37496 -0.7552,-3.11113 -0.7552,-3.47618c0,-0.32353 -1.50245,-0.32353 -3.34362,0.36504c-3.00887,0.6866 -3.00887,1.73617 -1.50245,3.47421zm-11.54137,-14.22254c2.96795,3.79796 4.47449,4.16081 7.81811,1.37332c2.21684,-1.73617 2.21684,-1.73617 0,-2.0597c-1.12678,0 -4.09484,-0.36504 -6.68724,-1.05165c-3.72327,-1.3731 -3.72327,-1.3731 -1.13087,1.73803zm-0.37555,-37.77882c1.88198,0 4.09882,-5.53577 2.96806,-7.27194c-1.46164,-1.73803 -4.47051,1.04946 -4.47051,4.16081c0,1.73814 0.75122,3.11113 1.50245,3.11113zm-18.22463,23.55616c-2.25765,1.4145 -1.88198,1.73836 1.08609,1.73836c1.88198,0 4.09473,-0.6888 4.85004,-1.73836c1.12666,-2.74795 -2.59251,-2.74795 -5.93613,0zm0.37567,30.5049c0.33475,0.36504 1.46153,-0.36307 2.5924,-2.0597c1.12666,-1.4145 4.47051,-3.15253 7.06279,-3.83925c3.34362,-1.04979 4.85016,-2.74631 4.85016,-5.21246c0,-5.85722 -5.22571,-4.12138 -10.78629,3.47629c-2.25753,3.83739 -4.09473,6.94874 -3.71906,7.63512zm-4.09882,-15.95872c3.34351,-3.79752 3.34351,-4.48631 0.71019,-5.53588c-2.96795,-1.37332 -5.1807,1.73836 -5.1807,7.27205c-0.37965,4.16278 -0.37965,4.16278 4.47051,-1.73617zm-5.97693,-40.88984c0.37555,2.78749 1.12678,2.42464 3.34351,-2.74828c2.63343,-5.53402 2.63343,-6.26213 0.37567,-6.26213c-1.46153,0 -2.96806,1.04979 -3.34362,2.78793c-0.75122,1.37299 -0.75122,4.52585 -0.37555,6.22249zm-1.84129,-28.4038c0,1.41264 0.7103,4.84752 1.46562,7.27205c1.12678,4.84939 1.12678,4.84939 2.25765,0.6866c1.46153,-4.16059 0,-10.38308 -2.25765,-10.38308c-1.09006,0 -1.46562,1.04924 -1.46562,2.42442zm-26.08355,11.43286c-1.84117,2.42475 -1.84117,4.8495 -0.37965,12.12144c0.75532,5.21235 2.63741,10.42481 3.72327,11.43505c1.88209,1.73803 2.25765,0 2.6332,-10.74648c0,-13.13169 -1.88198,-17.29414 -5.97682,-12.81002zm3.34362,36.72925c0.37567,0.68671 1.12678,-0.6866 0.75122,-2.74817c0,-2.10121 -0.37555,-2.42475 -1.12678,-1.04957c-0.33486,1.3731 -0.33486,3.11113 0.37555,3.79774zm13.41937,-32.56647c-0.37555,0.68671 -0.37555,5.5361 0.75122,10.74648c1.13087,9.01217 1.46562,9.37502 1.84129,2.78946c0.37555,-10.74834 -0.37567,-15.96058 -2.59251,-13.53594zm-12.66815,97.73884c2.25765,-4.16278 5.97693,-11.11152 8.56933,-15.27397c2.96795,-4.48478 4.85004,-10.38341 5.60127,-16.28236c1.09006,-9.33384 1.09006,-9.33384 1.09006,-9.33384c-4.47449,5.17292 -4.47449,5.17292 -4.47449,5.17292c-2.21684,2.78782 -3.71929,5.89895 -3.71929,6.94874c0,2.74806 -7.06688,20.08174 -9.28373,23.19309c-1.12678,1.73584 -3.00887,5.57542 -3.34362,8.32337c-1.88209,7.95888 1.46562,6.58556 5.56046,-2.74795zm-26.42239,35.6776c1.13087,6.90887 1.13087,6.90887 4.85016,-7.96063c2.21684,-8.00028 5.56046,-20.80788 7.81811,-28.76862c2.96795,-10.05987 4.09882,-18.38324 4.09882,-30.1415c0,-15.27244 -0.37965,-15.59597 -3.3476,-13.85761c-6.72816,4.48434 -10.45142,16.96863 -11.95387,41.21118c-0.7103,12.4867 -1.46562,24.97099 -2.21673,27.71927c-0.37567,2.7876 0,8.00006 0.75111,11.79791zm0.75532,-88.68921c1.46153,3.43489 2.96806,6.22249 2.96806,6.22249c0.37555,0 2.21264,-2.10121 3.71917,-4.84917c1.88198,-2.42278 4.85004,-5.21038 5.97693,-6.22062c4.43357,-3.15253 5.56035,-12.84922 1.84117,-19.43478c-2.96806,-5.89895 -11.16173,-12.48648 -12.66826,-10.38527c-0.75111,0.6866 -1.83708,7.27413 -2.5924,14.90926c-1.50233,11.43472 -1.50233,14.91079 0.75532,19.7581zm-2.25765,-79.35504c0.75122,0.68858 1.50233,0.32353 1.50233,-0.72592c0,-1.37518 -0.75111,-2.7485 -1.50233,-3.435c-1.13087,-0.728 -1.84129,-0.36307 -1.84129,1.01025c0,1.04957 0.71042,2.42475 1.84129,3.15067zm-120.61125,93.17312c5.18479,0.36493 5.18479,0.36493 5.18479,0.36493c5.22571,0 10.45142,-4.48631 10.45142,-8.32337c0,-2.42475 -0.37555,-2.42475 -15.63621,7.95844zm2.21684,-9.6968c0,1.05198 0.75122,2.10121 1.88209,2.10121c1.83719,0 7.06279,-6.22249 5.93601,-7.27194c-1.13087,-1.4145 -7.81811,3.11102 -7.81811,5.17073zm4.09882,-23.87937c5.60138,6.91073 8.19378,7.59734 11.16173,3.11102c3.00887,-4.16059 0.37567,-6.94841 -8.57331,-7.95866c-7.43846,-1.05165 -7.43846,-1.05165 -2.58842,4.84763zm-4.09882,-19.43303c0,0.72592 2.6332,2.42256 5.60127,3.83706c13.75424,6.58567 16.38744,6.58567 16.01177,0.32386c0,-3.79807 -5.60127,-12.12166 -7.81811,-12.12166c-2.6332,0 -13.79493,6.58556 -13.79493,7.96074zm20.1107,49.21168c4.09484,0 4.4704,-1.04979 1.12678,-2.74642c-1.50642,-0.36493 -2.96806,0 -3.34362,1.01025c-0.75532,1.04924 0.37555,1.73617 2.21684,1.73617zm2.96806,-81.41508c-2.59251,-1.73825 -5.94022,-2.42464 -7.44255,-1.73825c-2.5924,1.37518 -2.21684,1.73825 1.50233,2.78749c1.84129,0.6888 5.60547,1.37529 7.44255,1.69882c2.21684,0 2.21684,-0.68858 -1.50233,-2.74806zm-0.33475,12.48429c2.21264,0 2.5924,-0.36307 1.08597,-1.41264c-1.08597,-0.32331 -2.59251,-0.32331 -3.34373,0.36318c-0.37555,0.68639 0.75122,1.37332 2.25776,1.04946zm2.21264,7.96085c-5.2256,0 -5.2256,0.3232 -2.21264,3.11102c3.71917,3.11113 4.80514,3.47399 6.31168,1.3731c2.59228,-2.74642 0.75111,-4.48412 -4.09905,-4.48412zm7.44267,-39.15214c-1.50654,-1.73803 -1.88209,1.37332 -1.12689,5.17106c0.37555,2.42475 1.878,4.52563 2.63332,4.52563c1.46153,0 0.37555,-7.63699 -1.50642,-9.69669zm11.91284,45.73715c-0.75111,0.32386 1.13087,2.42475 3.34771,4.163c2.25765,1.73617 4.09473,2.42267 4.09473,1.3731c0,-2.42442 -6.31157,-6.95027 -7.44244,-5.5361zm-9.32055,2.42475c-3.34362,2.42497 -1.46153,8.64712 3.38454,9.69691c2.5924,0.6865 6.69133,3.47431 9.28373,6.22227c2.25765,2.78782 4.09473,3.83947 4.09473,2.78782c0,-3.47421 -14.8809,-20.1215 -16.76299,-18.707zm15.26066,28.76895c-2.21673,-5.5775 -4.80924,-8.32392 -9.65939,-10.06195c-3.71917,-1.3731 -7.44244,-2.10089 -8.56922,-1.73595c-1.13087,0.36285 3.34362,4.84731 9.7002,10.05965c11.91284,9.01031 11.91284,9.01031 8.52841,1.73825zm19.77186,-53.37468c-0.75122,0 -1.50654,1.37332 -1.50654,2.74642c0,1.73803 0.75532,2.78782 1.50654,2.78782c1.08597,0 1.84129,-1.04979 1.84129,-2.78782c0,-1.3731 -0.75532,-2.74642 -1.84129,-2.74642zm-3.38443,28.4038c0,2.42442 6.35249,0.6866 8.94489,-2.42475c3.71929,-5.21224 3.34362,-6.58556 -1.50642,-6.58556c-3.34362,0 -7.43846,4.84961 -7.43846,9.01031zm10.82698,-74.82974c-1.13087,4.48445 -1.88209,8.28219 -1.50642,8.64723c1.13076,1.37332 4.09893,-9.01009 4.09893,-13.17287c0,-1.73617 -1.13098,0.36504 -2.59251,4.52563zm19.3555,69.98024c-1.88209,0 -3.34373,0.6888 -3.34373,2.06157c0,1.04979 1.08597,1.73836 2.21275,1.73836c1.50642,0 2.96806,-0.68858 3.34771,-1.73836c0.75122,-1.37277 -0.37965,-2.06157 -2.21673,-2.06157zm-4.4746,65.13272c2.21684,6.264 5.56046,12.12144 7.44255,13.53594c1.88209,1.04979 5.60127,5.89917 7.81811,10.74834c2.21684,4.84752 4.47449,8.64537 4.85016,8.64537c1.83708,0 -1.88209,-31.878 -4.47449,-41.57656c-2.25776,-8.32151 -2.96818,-15.95872 -2.59251,-28.08015c0.33475,-9.01009 0,-16.97083 -0.75111,-17.65732c-0.37567,-0.6866 -2.96806,-0.6866 -5.22571,0c-4.09893,1.3731 -4.47449,2.42475 -4.47449,10.06173c0,5.85755 -0.75134,9.01031 -2.59251,10.38308c-5.2256,3.11146 -4.85004,20.76867 0,33.93957zm-10.78606,-46.42375c-0.75122,-5.21235 -1.50233,-5.89895 -5.60127,-5.89895c-4.85016,0 -4.85016,0.36307 -4.47449,7.63512c0,4.48631 0.7552,9.69855 1.13076,12.12133c0.37567,2.42475 1.84129,4.84917 3.34373,5.21235c2.96795,1.73825 6.31157,-10.38308 5.60127,-19.06985zm-5.60127,34.98903c-3.34373,-4.16092 -5.60127,-8.64537 -5.93613,-9.69669c0,-1.3731 -1.88198,-4.84731 -4.09484,-7.95866c-2.25765,-3.11113 -4.85004,-6.95038 -5.98091,-8.3237c-3.71917,-4.84917 -2.96806,-0.68639 1.13087,10.05987c2.5924,7.27381 7.06291,13.85947 12.2885,19.39524c9.65928,9.37316 10.78617,7.63545 2.59251,-3.47607zm-5.93613,17.01014c4.05404,0 3.71929,-0.36285 -1.88198,-5.89862c-3.71929,-3.47453 -6.31168,-7.27227 -6.31168,-9.01041c0,-1.37299 -4.85016,-6.26202 -10.45131,-10.74648c-5.56057,-4.52552 -10.78629,-9.00998 -11.53739,-10.38494c-0.75532,-1.73617 -1.13087,-1.73617 -1.13087,0.32353c0,2.10121 -1.83719,2.42442 -7.81811,1.3731c-4.09484,-0.68671 -7.43846,-0.68671 -7.43846,-0.32167c0,0.6866 1.50233,4.84752 3.00887,9.00998c2.59251,6.9092 3.71917,8.32392 11.91295,11.07012c5.18491,1.73803 13.37845,5.89884 18.60417,9.00998c4.85016,3.15286 10.78617,5.57542 13.04382,5.57542zm-58.11118,11.75826c1.50642,0 3.72327,-0.68639 5.2256,-1.7377c2.59251,-2.42289 0.37976,-2.42289 -4.4704,0c-2.21684,1.05132 -2.5924,1.37485 -0.7552,1.7377zm-4.09484,-8.64712c3.71929,-1.41242 15.63621,-2.7876 26.46319,-2.7876c20.44147,-0.32353 24.54029,-1.37277 16.34652,-3.47421c-2.59228,-0.68639 -8.52841,-2.42475 -13.37845,-4.16092c-8.56933,-3.11113 -26.08764,-2.06157 -27.92483,1.41297c-0.37965,0.68825 -2.25765,1.05132 -4.09882,0.68825c-3.71929,-1.05143 -7.44255,1.73639 -8.56933,7.27227c-1.50642,4.48412 1.12678,4.84917 11.16173,1.04924zm-29.76601,7.96074c0.75122,2.78782 4.47449,3.11113 7.44255,0.68639c1.83708,-1.37299 1.83708,-2.05938 0,-4.16059c-1.50642,-2.0619 -2.5924,-2.0619 -4.85004,-0.32353c-1.50642,1.01025 -2.59251,2.74642 -2.59251,3.79774zm-11.91295,24.24288c1.46164,0 2.21286,1.04979 1.46164,3.11135c-0.33486,1.4145 -1.46164,2.7876 -2.21684,2.7876c-1.12678,0 -1.83719,-1.3731 -1.83719,-2.7876c0,-1.69663 1.08597,-3.11135 2.5924,-3.11135z" stroke-dasharray="2,2" stroke-width="0" fill="#000000"/>
 </g>
</svg>