<?xml version="1.0" standalone="no"?>
<!DOCTYPE svg PUBLIC "-//W3C//DTD SVG 20010904//EN"
 "http://www.w3.org/TR/2001/REC-SVG-20010904/DTD/svg10.dtd">
<svg version="1.0" xmlns="http://www.w3.org/2000/svg"
 width="800.000000pt" height="800.000000pt" viewBox="0 0 800.000000 800.000000"
 preserveAspectRatio="xMidYMid meet">
<metadata>
Created by potrace 1.14, written by Peter Selinger 2001-2017
</metadata>
<g transform="translate(0.000000,800.000000) scale(0.100000,-0.100000)"
fill="#000000" stroke="none">
<path d="M3650 5761 c-36 -16 -83 -32 -105 -35 -21 -4 -47 -14 -57 -23 -14
-12 -23 -14 -41 -6 -34 15 -81 -9 -101 -51 -14 -30 -22 -36 -49 -36 -43 0
-125 -56 -132 -92 -7 -30 -29 -53 -44 -44 -5 4 -9 20 -9 37 2 45 -33 65 -52
29 -13 -24 -78 -53 -103 -46 -30 7 -30 -19 -1 -74 36 -68 48 -130 25 -131 -30
-2 -46 3 -54 17 -8 15 -18 6 -113 -104 -24 -27 -38 -34 -79 -38 -29 -4 -54
-12 -61 -22 -7 -10 -18 -17 -25 -17 -34 0 1 -49 59 -81 3 -2 11 -38 17 -77 l4
-29 -54 6 c-35 3 -59 0 -71 -9 -16 -11 -23 -9 -52 13 -39 30 -49 23 -56 -38
-3 -25 -14 -62 -24 -84 -10 -21 -19 -50 -18 -65 1 -24 4 -26 46 -26 45 0 45 0
46 -35 1 -22 -6 -43 -19 -58 -16 -17 -18 -25 -9 -34 16 -16 59 8 66 38 8 32
52 52 105 48 48 -4 66 -15 86 -53 10 -20 10 -30 2 -41 -17 -21 -66 -42 -107
-45 -19 -2 -36 -8 -38 -15 -6 -18 -94 -99 -114 -106 -10 -3 -18 -9 -18 -14 0
-16 -45 -18 -71 -3 -37 22 -79 5 -79 -32 0 -14 3 -25 8 -25 4 0 18 -9 31 -19
l23 -18 -31 -1 c-32 -1 -51 -8 -51 -20 0 -4 9 -22 20 -40 19 -32 21 -32 45
-16 32 21 123 23 136 3 5 -8 9 -25 9 -39 -1 -27 -26 -67 -36 -57 -4 3 -19 0
-35 -8 -32 -17 -56 -11 -64 16 -4 10 -11 19 -16 19 -15 0 -23 -30 -10 -43 19
-19 12 -35 -18 -42 -16 -3 -38 -17 -50 -29 -22 -23 -22 -24 -3 -37 13 -9 19
-24 17 -44 -2 -33 19 -95 37 -106 15 -10 68 13 113 47 32 24 41 23 37 -8 -1
-3 5 -11 13 -18 11 -9 16 -7 23 7 5 10 8 26 7 36 -2 10 3 17 12 17 12 0 14
-13 9 -81 -4 -45 -11 -90 -17 -101 -14 -26 -7 -31 23 -18 14 7 30 27 37 46 7
20 19 38 28 41 11 5 12 8 2 14 -18 11 -18 78 0 116 19 42 68 58 159 54 34 -2
26 -25 -13 -39 -32 -12 -33 -15 -23 -38 l11 -24 27 25 c14 14 31 25 37 25 6 0
13 6 16 14 3 8 31 26 62 41 57 28 135 80 147 99 8 12 54 12 223 2 198 -12 249
-16 270 -20 11 -3 29 -5 40 -5 12 -1 48 -24 80 -51 47 -40 67 -66 92 -122 41
-88 94 -244 109 -318 17 -84 23 -415 7 -431 -4 -4 -26 -2 -48 6 -28 9 -43 10
-50 3 -7 -7 -6 -12 3 -15 6 -3 12 -11 12 -19 0 -8 4 -14 9 -14 15 0 70 -81 66
-98 -8 -46 -16 -154 -20 -309 l-6 -173 136 0 136 0 -6 48 c-10 72 -13 88 -19
119 -3 15 -8 51 -12 78 -3 28 -8 53 -10 56 -11 19 -23 246 -23 449 0 174 6
214 41 285 29 57 80 135 89 135 4 0 10 8 14 19 6 19 131 154 150 162 6 2 32
36 58 76 26 39 62 82 80 96 50 37 256 157 271 157 7 0 20 -8 28 -17 22 -25 83
-147 112 -223 26 -70 57 -91 93 -65 17 13 17 14 0 32 -15 15 -19 16 -27 3 -5
-8 -6 -18 -4 -22 3 -4 0 -8 -5 -8 -6 0 -11 5 -11 10 0 6 0 11 -1 13 -7 17 -24
159 -19 162 4 2 19 2 33 -1 23 -4 27 -1 27 18 0 13 -9 34 -20 48 -27 34 -25
48 8 52 19 2 28 9 30 25 3 18 8 20 35 16 50 -8 160 -70 199 -111 19 -20 56
-57 83 -82 60 -56 131 -164 143 -218 6 -23 8 -43 6 -45 -11 -11 36 -38 55 -32
25 8 27 37 5 55 -21 19 -45 78 -50 125 l-4 40 19 -36 c11 -19 27 -41 35 -48
13 -11 17 -10 22 5 14 45 28 62 75 92 27 18 49 38 50 45 0 7 2 21 5 32 2 11
-2 33 -8 48 -9 23 -8 34 5 56 22 38 28 80 15 105 -6 12 -13 50 -15 86 -5 108
-11 172 -18 178 -3 3 -16 0 -27 -7 -19 -12 -24 -11 -40 9 -21 25 -14 38 22 45
12 2 25 6 27 9 11 11 9 43 -4 58 -9 10 -13 24 -10 32 5 12 -4 16 -41 18 l-47
3 -5 69 c-3 48 -9 71 -19 74 -8 3 -26 16 -40 30 -18 18 -29 22 -40 15 -23 -15
-23 -27 -1 -53 11 -13 20 -27 20 -31 0 -13 -18 -20 -25 -9 -11 17 -29 11 -69
-25 -21 -19 -43 -32 -47 -29 -13 7 -11 38 2 51 21 21 28 92 12 109 -11 11 -19
12 -28 4 -8 -6 -54 -14 -103 -17 -84 -5 -91 -4 -101 15 -13 24 -11 25 50 46
51 18 91 20 105 6 17 -17 39 -2 53 36 11 32 10 39 -13 84 -15 28 -26 52 -26
55 0 3 0 10 0 16 0 5 -20 19 -45 30 -33 15 -51 31 -66 61 l-20 40 -26 -23 -25
-24 7 42 c8 52 -1 83 -25 83 -10 0 -32 11 -48 25 -34 28 -79 48 -93 39 -5 -3
-18 10 -29 29 -24 40 -49 42 -107 7 -38 -22 -59 -16 -47 14 3 9 15 21 25 27
29 15 23 36 -13 48 -27 10 -35 9 -44 -4 -17 -23 -24 -18 -24 18 0 44 -32 83
-56 69 -10 -6 -23 -27 -29 -47 -5 -21 -20 -44 -33 -53 l-22 -15 2 59 c2 59 -5
84 -23 84 -6 0 -15 -13 -20 -30 -13 -35 -17 -36 -35 -12 -12 16 -14 16 -30 0
-10 -10 -18 -34 -19 -54 0 -21 -6 -39 -12 -41 -8 -3 -10 20 -7 80 3 69 1 87
-12 98 -36 30 -134 22 -134 -11 0 -24 -38 -28 -45 -5 -3 8 -7 22 -10 30 -3 12
-10 13 -31 5 -29 -11 -141 -20 -149 -12 -2 2 -39 6 -81 9 -74 4 -111 -7 -98
-28 11 -19 -9 -8 -38 21 -38 38 -73 38 -158 1z m-100 -156 c-7 -31 -17 -52
-22 -47 -4 4 -1 32 8 61 20 69 31 58 14 -14z m1375 -215 c-6 -32 -16 -44 -25
-29 -9 14 9 61 21 53 4 -2 6 -13 4 -24z m-1824 -30 c13 -41 7 -62 -12 -43 -15
15 -23 83 -10 83 6 0 16 -18 22 -40z m856 -51 c2 -27 -21 -19 -25 9 -2 15 1
20 10 17 8 -3 14 -15 15 -26z m-952 -116 c-11 -2 -40 3 -65 10 -44 14 -44 15
-20 24 20 8 33 6 65 -10 32 -17 36 -22 20 -24z m471 -69 c-3 -8 -10 -14 -16
-14 -11 0 -14 43 -3 54 10 10 26 -23 19 -40z m1001 -17 c6 -12 9 -34 8 -47 -1
-14 -3 -34 -4 -44 -2 -29 -17 -8 -28 39 -15 65 2 101 24 52z m-1467 -13 c0 -2
-9 -4 -21 -4 -11 0 -18 4 -14 10 5 8 35 3 35 -6z m46 -99 c4 -8 1 -22 -6 -30
-10 -11 -17 -12 -33 -3 -29 15 -47 34 -40 42 13 13 74 6 79 -9z m1179 -29 c9
-46 11 -167 3 -172 -3 -2 -4 -13 -1 -24 3 -11 0 -20 -5 -20 -23 0 -47 68 -58
163 -10 83 47 132 61 53z m-1309 -13 c20 -21 53 -91 54 -115 0 -22 -26 -36
-53 -30 -36 7 -162 76 -160 87 2 11 112 75 130 75 6 0 19 -8 29 -17z m614 -1
c0 -26 -52 -75 -83 -79 -30 -4 -35 13 -15 50 16 31 39 46 71 47 20 0 27 -5 27
-18z m-266 -64 c-5 -8 -20 1 -61 39 -10 9 -10 12 0 16 15 6 68 -43 61 -55z
m1103 -20 c2 -42 0 -79 -5 -81 -4 -3 -8 2 -8 11 -1 9 -4 48 -9 86 -6 55 -5 68
6 64 9 -3 14 -29 16 -80z m-627 48 c0 -18 -30 -30 -43 -17 -5 5 -6 14 -3 20
10 16 46 13 46 -3z m-1084 -25 l29 -8 -30 -15 c-27 -13 -34 -13 -65 0 -33 13
-33 15 -14 23 12 4 25 13 29 19 6 9 9 9 15 1 4 -7 20 -15 36 -20z m510 -23
c64 -67 94 -107 94 -126 0 -9 -17 1 -44 26 -25 23 -61 48 -80 56 -40 17 -59
51 -44 79 5 9 12 17 16 17 4 0 30 -24 58 -52z m1336 29 c0 -17 -32 -87 -41
-87 -15 0 -10 69 6 86 15 15 34 15 35 1z m261 -41 c6 -16 -14 -58 -28 -60 -15
-2 -18 43 -5 60 15 18 26 18 33 0z m207 6 c0 -6 -85 -62 -94 -62 -12 0 10 43
27 55 22 16 67 20 67 7z m-950 -29 c83 -58 123 -152 97 -227 -5 -17 -28 -52
-51 -77 -23 -25 -49 -56 -59 -68 l-19 -23 -23 48 c-19 40 -22 62 -20 124 6
143 23 240 43 240 4 0 19 -8 32 -17z m1174 3 c49 -21 57 -39 13 -32 -42 7 -87
26 -87 38 0 12 37 10 74 -6z m-1393 -24 c1 -9 3 -89 4 -177 3 -142 8 -198 29
-285 3 -14 8 -38 11 -55 2 -16 7 -43 10 -60 13 -63 29 -285 21 -285 -3 0 -23
35 -45 78 -21 42 -53 91 -71 107 -69 65 -119 211 -118 352 0 80 2 91 29 128
23 33 29 51 30 107 2 76 6 84 37 95 39 15 62 13 63 -5z m-257 -18 c27 3 29
-112 4 -196 -22 -73 -62 -52 -73 37 -17 146 -9 184 38 166 12 -5 26 -8 31 -7z
m-694 -55 c55 -12 74 -33 58 -63 -13 -25 -27 -36 -47 -36 -14 0 -101 88 -101
102 0 11 36 10 90 -3z m297 -5 c52 -18 75 -39 104 -96 25 -49 25 -62 0 -48
-11 5 -25 16 -33 23 -7 7 -29 24 -48 37 -35 25 -48 37 -84 78 -17 19 -17 22
-3 22 9 0 38 -7 64 -16z m2273 5 c0 -15 -21 -53 -34 -61 -31 -20 -35 34 -4 56
26 19 38 20 38 5z m-347 -35 c9 -10 -15 -54 -30 -54 -20 0 -53 19 -53 30 0 15
71 36 83 24z m-1674 -118 c28 -41 51 -81 51 -88 0 -8 25 -52 56 -97 30 -45 53
-88 51 -94 -8 -19 -131 116 -159 174 -54 111 -82 199 -59 185 4 -3 31 -39 60
-80z m821 59 c0 -8 -4 -15 -8 -15 -5 0 -9 7 -9 15 0 8 4 15 9 15 4 0 8 -7 8
-15z m-980 -145 c87 -72 130 -117 130 -134 0 -8 25 -41 55 -74 30 -33 52 -62
49 -65 -15 -15 -75 8 -194 74 -30 17 -89 44 -130 61 -41 17 -83 37 -92 45 -16
14 -68 132 -68 154 0 7 23 9 70 5 58 -5 72 -4 76 9 6 13 8 13 23 -2 9 -10 45
-43 81 -73z m1360 50 c-21 -13 -63 -13 -55 1 4 6 17 14 29 19 26 10 48 -6 26
-20z m995 -56 c0 -25 -52 -33 -62 -9 -7 20 13 35 42 31 12 -2 20 -11 20 -22z
m-2765 7 c0 -12 -47 -61 -58 -61 -23 0 -19 31 5 50 26 21 53 27 53 11z m1699
-40 c11 -7 10 -14 -8 -40 -12 -17 -27 -31 -32 -31 -6 0 -7 -4 -4 -10 3 -5 2
-10 -4 -10 -24 0 -14 75 12 92 15 10 19 10 36 -1z m-1639 -22 c0 -6 -15 -26
-34 -45 -29 -29 -41 -34 -82 -34 -44 0 -46 1 -29 14 11 8 23 12 27 10 5 -3 8
-1 8 4 0 11 79 61 98 62 6 0 12 -5 12 -11z m1900 -16 c45 -5 47 -8 17 -27 -29
-20 -50 -13 -73 21 -16 25 -16 26 2 18 11 -4 35 -9 54 -12z m-1812 -11 c2 -7
-7 -12 -22 -12 -27 0 -35 15 -13 23 17 7 30 3 35 -11z m1137 -150 c-1 -81 -6
-154 -9 -162 -3 -8 -7 -26 -10 -40 -5 -27 -29 -119 -81 -305 -18 -66 -36 -135
-40 -154 -6 -30 -9 -32 -18 -16 -11 20 -13 130 -4 235 3 36 8 112 12 170 3 58
8 116 10 130 2 14 7 45 10 70 13 96 39 162 84 212 43 49 50 26 46 -140z m585
114 c-1 -36 -14 -54 -51 -66 -22 -8 -51 -25 -64 -38 -45 -45 -19 32 27 81 41
43 88 56 88 23z m545 -6 c3 -5 -1 -10 -9 -10 -9 0 -16 5 -16 10 0 6 4 10 9 10
6 0 13 -4 16 -10z m378 -12 c7 -25 3 -33 -12 -23 -13 8 -15 45 -2 45 5 0 11
-10 14 -22z m-1259 -25 c-11 -78 -28 -140 -52 -188 -13 -27 -27 -52 -31 -55
-3 -3 -26 -43 -50 -90 -50 -97 -60 -112 -71 -105 -13 8 11 97 36 137 13 21 24
41 24 45 0 5 6 20 14 34 7 15 25 62 40 106 21 64 74 153 91 153 2 0 1 -17 -1
-37z m-1282 -26 c14 -3 35 -10 45 -15 10 -6 22 -10 26 -10 22 0 137 -36 137
-43 0 -10 -4 -10 -120 -15 -229 -8 -294 -16 -374 -44 -35 -12 -58 -15 -69 -8
-15 8 -16 12 -2 45 20 47 43 64 78 57 18 -4 34 0 45 9 30 27 150 39 234 24z
m2497 4 c7 -5 11 -13 7 -19 -8 -14 -46 -3 -46 14 0 16 18 18 39 5z m-675 -28
c11 -40 -14 -49 -42 -17 -19 21 -21 29 -10 35 25 16 46 9 52 -18z m461 -97
c37 -38 53 -66 35 -66 -17 0 -122 108 -115 119 8 14 21 6 80 -53z m209 -25 c7
-11 -14 -20 -31 -13 -7 2 -13 8 -13 13 0 12 37 12 44 0z m-2965 -15 c27 -32
-36 -73 -67 -43 -12 13 -11 18 7 36 24 24 44 27 60 7z m321 -15 c0 -11 -26
-21 -53 -20 -19 1 -18 3 8 14 36 17 45 18 45 6z"/>
<path d="M2752 5233 c-5 -10 -7 -24 -5 -30 7 -18 40 -16 47 3 8 22 8 22 -14
34 -15 8 -21 7 -28 -7z"/>
<path d="M2586 5055 c-8 -21 3 -45 20 -45 15 0 18 18 8 44 -8 20 -20 20 -28 1z"/>
<path d="M5083 4197 c-25 -11 -28 -23 -14 -46 8 -12 13 -12 35 3 44 28 26 65
-21 43z"/>
<path d="M2407 3863 c-10 -9 -9 -53 1 -53 14 0 32 23 32 42 0 18 -20 25 -33
11z"/>
</g>
</svg>
